<?xml version="1.0" standalone="no"?>
<!DOCTYPE svg PUBLIC "-//W3C//DTD SVG 20010904//EN"
 "http://www.w3.org/TR/2001/REC-SVG-20010904/DTD/svg10.dtd">
<svg version="1.0" xmlns="http://www.w3.org/2000/svg"
 width="501.000000pt" height="501.000000pt" viewBox="0 0 501.000000 501.000000"
 preserveAspectRatio="xMidYMid meet">
<metadata>
Created by potrace 1.14, written by Peter Selinger 2001-2017
</metadata>
<g transform="translate(0.000000,501.000000) scale(0.100000,-0.100000)"
fill="#000000" stroke="none">
<path d="M18 4985 c-17 -22 -18 -158 -18 -2504 l0 -2481 2505 0 2505 0 0 2505
0 2505 -2487 0 -2488 -1 -17 -24z m1027 -365 c300 -25 447 -117 502 -315 8
-27 16 -119 20 -202 l6 -153 -180 0 -181 0 -4 133 c-6 188 -35 245 -147 288
-45 18 -77 22 -166 22 -166 -1 -238 -34 -284 -132 -26 -55 -26 -59 -29 -324
l-4 -268 63 41 c107 69 177 85 364 84 175 0 257 -14 345 -59 102 -51 162 -130
196 -251 21 -79 31 -453 15 -579 -27 -209 -134 -317 -366 -371 -66 -16 -120
-19 -305 -19 -198 0 -235 3 -312 23 -158 39 -255 106 -308 213 -50 97 -51 132
-48 834 4 574 6 657 21 708 35 118 91 195 181 246 127 73 356 103 621 81z
m1793 -1119 c153 -38 233 -94 284 -198 l33 -67 3 -187 c3 -148 0 -201 -13
-251 -20 -80 -84 -198 -143 -266 -26 -30 -192 -228 -368 -440 l-322 -387 419
-3 419 -2 0 -135 0 -135 -498 0 c-275 0 -567 3 -650 7 l-152 6 0 118 0 117
357 419 c196 230 386 450 422 488 75 79 134 164 158 227 22 55 25 303 5 360
-31 88 -127 130 -297 130 -128 0 -201 -20 -254 -67 -51 -46 -61 -87 -61 -249
l0 -136 -180 0 -180 0 0 148 c0 168 11 245 45 313 57 112 163 173 355 204 133
22 509 13 618 -14z m1573 -1021 c113 -23 208 -68 265 -126 88 -87 114 -177
114 -386 l0 -148 -179 0 -178 0 -5 139 c-4 124 -7 144 -29 187 -36 70 -91 101
-201 115 -179 23 -307 -18 -357 -116 -26 -49 -26 -52 -29 -323 l-3 -273 48 35
c27 19 84 47 128 62 75 26 91 28 240 28 123 0 176 -4 230 -18 188 -49 286
-150 326 -337 6 -29 9 -159 7 -326 -4 -265 -5 -281 -27 -336 -84 -203 -304
-288 -710 -274 -369 13 -542 112 -596 339 -21 90 -21 1283 0 1402 41 232 193
347 494 376 124 12 353 2 462 -20z"/>
<path d="M784 3557 c-73 -19 -140 -62 -172 -109 l-27 -41 -3 -234 c-4 -274 3
-310 69 -367 56 -47 113 -61 254 -61 111 0 124 2 177 28 112 55 128 103 128
373 0 282 -17 335 -122 387 -48 24 -72 29 -155 33 -61 2 -117 -1 -149 -9z"/>
<path d="M3999 1427 c-73 -21 -136 -63 -164 -111 -25 -43 -25 -44 -25 -287 0
-217 3 -249 19 -285 41 -90 145 -129 323 -122 122 5 180 27 229 88 42 52 52
123 47 355 -3 177 -6 205 -24 245 -43 92 -102 121 -254 126 -67 3 -122 -1
-151 -9z"/>
</g>
</svg>
